# xmcd
#
# Track frame offsets:
#	150
#	17662
#	33167
#	55802
#	76087
#	92892
#	111542
#	130847
#	150340
#	168827
#	183985
#	202187
#	219052
#	237357
#	253825
#	276825
#	291235
#	310645
#	326572
#
# Disc length: 4558
#
# Revision: 6
# Processed by: cddbd v1.5.1PL0 Copyright (c) Steve Scherf et al.
# Submitted via: ExactAudioCopy v0.95a5
# Normalized: r5:DSETVAR1
#
DISCID=0211cc13
DTITLE=Various Artist - Blind Pig Sampler- Prime Chops- Volume 3
DYEAR=1995
DGENRE=Blues
TTITLE0=Coco Montoya - Gotta Mind To Travel
TTITLE1=Jimmy Rogers - Rock This House
TTITLE2=Debbie Davies - Wrong Man for Me
TTITLE3=Jimmy Thackery and the Drivers - Trouble Man
TTITLE4=Roy Rogers and Norton Buffalo - You're Gonna Need Somebody On Your Bond
TTITLE5=Charlie Musselwhite - Pistol In Your Face
TTITLE6=Chris Cain - Don't Let the Same Dog Bite You Twice
TTITLE7=Studebaker John and the Hawks - For Lovin' You
TTITLE8=Smokey Wilson - Howlin' for My Darlin'
TTITLE9=Gospel Hummingbirds - Great Change
TTITLE10=Frankie Lee - What's the Matter Baby
TTITLE11=Mitch Woods and His Rocket 88s - Shakin' the Shack
TTITLE12=E. C. Scott - I've Got Love On the Line
TTITLE13=Preacher Boy and the Natural Blues - Dead, Boy
TTITLE14=Luther Allison - Serious
TTITLE15=Jimmy Thackery and John Mooney - Oh Louise
TTITLE16=Eddie C. Campbell - That's When I Know
TTITLE17=Willie "Big Eyes" Smith - Tell Me Mama
TTITLE18=Chubby Carrier - Turn On Your Love Light
EXTD=LABEL =Blind Pig Records\nID =BPCD8003\nUPC =01914-88003-28\nCOPYRIGHT =1995
EXTT0=
EXTT1=
EXTT2=
EXTT3=
EXTT4=
EXTT5=
EXTT6=
EXTT7=
EXTT8=
EXTT9=
EXTT10=
EXTT11=
EXTT12=
EXTT13=
EXTT14=
EXTT15=
EXTT16=
EXTT17=
EXTT18=
PLAYORDER=
